<?xml version="1.0"?>
<svg xmlns="http://www.w3.org/2000/svg" id="Barrier-safety-blocked-construction" viewBox="0 0 64 64" width="512" height="512"><polygon points="43.26 50 45 55 23 55 24.74 50 43.26 50" style="fill:#ff5023"/><polygon points="39.09 38 41.17 44 26.83 44 28.91 38 39.09 38" style="fill:#ff5023"/><rect x="21" y="55" width="26" height="6" style="fill:#ffda44"/><polygon points="41.17 44 43.26 50 24.74 50 26.83 44 41.17 44" style="fill:#ffda44"/><polygon points="37 32 39.09 38 28.91 38 31 32 37 32" style="fill:#ffda44"/><rect x="21" y="60" width="26" height="1" style="fill:#bfa433"/><polygon points="8.95 25 14 25 14 61 8 61 8 25 8.95 25" style="fill:#c6c5ca"/><polygon points="53.95 25 56 25 56 61 50 61 50 25 53.95 25" style="fill:#c6c5ca"/><polygon points="54.94 10 54.94 10.01 38.95 26 23.95 26 39.94 10.01 39.94 10 54.94 10" style="fill:#ffda44"/><polygon points="61 18.95 61 26 56 26 53.95 26 61 18.95" style="fill:#ffda44"/><polygon points="61 10 61 18.95 53.95 26 38.95 26 54.94 10.01 54.94 10 61 10" style="fill:#ff5023"/><polygon points="39.94 10 39.94 10.01 23.95 26 8.95 26 24.94 10.01 24.94 10 39.94 10" style="fill:#ff5023"/><polygon points="10 10 3 17 3 26 8.95 26 24.94 10.01 24.94 10 10 10" style="fill:#ffda44"/><polygon points="3 10 3 16.95 3 17 10 10 3 10" style="fill:#ff5023"/><path d="M11,4h0a3,3,0,0,1,3,3v3a0,0,0,0,1,0,0H8a0,0,0,0,1,0,0V7A3,3,0,0,1,11,4Z" style="fill:#c6c5ca"/><path d="M53,4h0a3,3,0,0,1,3,3v3a0,0,0,0,1,0,0H50a0,0,0,0,1,0,0V7A3,3,0,0,1,53,4Z" style="fill:#c6c5ca"/><rect x="8" y="26" width="6" height="1" style="fill:#acabb1"/><rect x="50" y="26" width="6" height="1" style="fill:#acabb1"/><circle cx="52" cy="6" r="1" style="fill:#d9d8dc"/><circle cx="10" cy="6" r="1" style="fill:#d9d8dc"/><rect x="23" y="55" width="2" height="3" rx="1" style="fill:#ffe682"/><rect x="9" y="30" width="2" height="11" rx="1" style="fill:#d8d7da"/></svg>
